0
SECTION
2
HEADER
9
$ACADVER
1
AC1018
9
$INSUNITS
70
4
0
ENDSEC
0
SECTION
2
TABLES
0
TABLE
2
LAYER
70
2
0
LAYER
100
AcDbSymbolTableRecord
100
AcDbLayerTableRecord
2
COLOR_1
70
0
62
1
420
682420
6
CONTINUOUS
0
LAYER
100
AcDbSymbolTableRecord
100
AcDbLayerTableRecord
2
COLOR_2
70
0
62
2
420
14434598
6
CONTINUOUS
0
ENDTAB
0
ENDSEC
0
SECTION
2
ENTITIES
0
LWPOLYLINE
100
AcDbEntity
8
COLOR_1
420
682420
100
AcDbPolyline
90
25
70
1
10
13.54167
20
60.41667
10
20.58527
20
60.58864
10
34.02799
20
60.61901
10
54.16667
20
60.41667
10
54.94604
20
60.13605
10
55.89382
20
59.51937
10
57.95885
20
57.73828
10
60.41667
20
55.20833
10
60.99453
20
34.52292
10
61.45833
20
12.5
10
61.19087
20
11.71943
10
60.58037
20
10.77109
10
58.79714
20
8.70625
10
56.25
20
6.25
10
35.56458
20
5.67214
10
13.54167
20
5.20833
10
12.7611
20
5.47579
10
11.81276
20
6.0863
10
9.74792
20
7.86953
10
7.29167
20
10.41667
10
6.25
20
53.125
10
9.05482
20
56.64271
10
11.4562
20
59.1332
10
12.58445
20
60.00526
10
13.54167
20
60.41667
0
LWPOLYLINE
100
AcDbEntity
8
COLOR_1
420
682420
100
AcDbPolyline
90
31
70
1
10
30.20833
20
47.91667
10
28.03594
20
47.05938
10
26.04167
20
45.83333
10
23.8431
20
43.49792
10
22.6132
20
41.93099
10
21.875
20
40.625
10
21.00456
20
35.6862
10
20.73315
20
32.53057
10
20.83333
20
30.20833
10
21.7485
20
28.123
10
23.35625
20
25.53581
10
26.04167
20
21.875
10
28.00391
20
20.61654
10
30.20833
20
19.79167
10
33.85417
20
19.65417
10
37.5
20
19.79167
10
39.6724
20
20.64896
10
41.66667
20
21.875
10
43.86523
20
24.21042
10
45.09513
20
25.77734
10
45.83333
20
27.08333
10
46.70378
20
32.02214
10
46.97518
20
35.17777
10
46.875
20
37.5
10
45.95983
20
39.58534
10
44.35208
20
42.17253
10
41.66667
20
45.83333
10
39.70443
20
47.0918
10
37.5
20
47.91667
10
33.85417
20
48.05417
10
30.20833
20
47.91667
0
LWPOLYLINE
100
AcDbEntity
8
COLOR_2
420
14434598
100
AcDbPolyline
90
6
70
1
10
81.25
20
58.33333
10
82.21237
20
57.07044
10
83.33333
20
55.20833
10
94.79167
20
7.29167
10
67.70833
20
7.29167
10
81.25
20
58.33333
0
ENDSEC
0
EOF
